GIL06_slow_20kg_backpack_grf_custom.mot																		
version=4																		
nRows=66																		
nColumns=19																		
inDegrees=yes																		
endheader																		
																		
time	     ground_force_vx	     ground_force_vy	     ground_force_vz	     ground_force_px	     ground_force_py	     ground_force_pz	     1_ground_force_vx	     1_ground_force_vy	     1_ground_force_vz	     1_ground_force_px	     1_ground_force_py	     1_ground_force_pz	     ground_torque_x	     ground_torque_y	     ground_torque_z	     1_ground_torque_x	    1_ground_torque_y	     1_ground_torque_z
0.23333348	0	0	0	1.8275144	0	0.033753575	-72.58295628	944.4978114	16.52004941	1.45482776	0	-0.033753575	0	0	0	0	2.707818755	0
0.24166681	0	0	0	1.83033105	0	0.033189875	-68.82730493	963.9300057	17.32655248	1.45600549	0	-0.033605995	0	0	0	0	2.704174191	0
0.25000015	0	0	0	1.8330271	0	0.032594965	-64.16934511	983.8980268	18.70952279	1.45746448	0	-0.033525765	0	0	0	0	2.690103926	0
0.25833347	0	0	0	1.83557361	0	0.031973375	-59.0798386	1001.221195	20.49854917	1.4590752	0	-0.033510565	0	0	0	0	2.641704621	0
0.2666668	0	0	0	1.83798181	0	0.031334415	-53.72754609	1014.729	22.21042776	1.46075647	0	-0.033518655	0	0	0	0	2.520964293	0
0.27500015	0	0	0	1.84028796	0	0.030695955	-48.13711425	1024.027884	23.26737112	1.46249512	0	-0.033517925	0	0	0	0	2.297094625	0
0.28333348	0	0	0	1.84253076	0	0.030084155	-42.49594818	1029.155062	23.28158131	1.46434937	0	-0.033515355	0	0	0	0	1.969806201	0
0.29166681	0	0	0	1.84474182	0	0.029517985	-37.18430289	1030.824397	22.23232071	1.46640576	0	-0.033548535	0	0	0	0	1.57452212	0
0.30000013	0	0	0	1.84692297	0	0.029009745	-32.50501949	1029.878741	20.46412022	1.46876172	0	-0.033669355	0	0	0	0	1.166316577	0
0.30833349	0	0	0	1.8490592	0	0.028579965	-28.62780382	1027.029684	18.54310229	1.47151965	0	-0.033911995	0	0	0	0	0.796213965	0
0.31666681	0	0	0	1.85113208	0	0.028241045	-25.66663007	1022.767162	16.94172444	1.47475098	0	-0.034251385	0	0	0	0	0.508738373	0
0.32500014	0	0	0	1.85309021	0	0.027994545	-23.85251331	1017.368499	15.87427318	1.47847888	0	-0.034643745	0	0	0	0	0.326874898	0
0.33333349	0	0	0	1.85488696	0	0.027822315	-23.44454737	1011.101874	15.27569921	1.4826604	0	-0.035060925	0	0	0	0	0.240941458	0
0.34166682	0	0	0	1.85651599	0	0.027683525	-24.50551002	1004.429287	14.97694662	1.4872041	0	-0.035506505	0	0	0	0	0.222479907	0
0.35000014	0	0	0	1.85800952	0	0.027546865	-26.72142423	997.6405252	15.01771256	1.49201453	0	-0.036007115	0	0	0	0	0.251042031	0
0.35833347	0	0	0	1.85943738	0	0.027415045	-29.53621556	990.6917993	15.61172647	1.4969834	0	-0.036597515	0	0	0	0	0.319005876	0
0.36666679	0	0	0	1.86085632	0	0.027326075	-32.34130645	983.6255377	16.82523553	1.5019563	0	-0.037278725	0	0	0	0	0.414232242	0
0.37500015	0	0	0	1.86227539	0	0.027337485	-34.62292683	976.6623572	18.42353497	1.50675891	0	-0.038024395	0	0	0	0	0.504306188	0
0.38333347	0	0	0	1.86366699	0	0.027489645	-36.133943	970.2868328	20.09111701	1.51126331	0	-0.038797285	0	0	0	0	0.55249382	0
0.39166683	0	0	0	1.86500574	0	0.027788995	-36.87092464	964.7688632	21.54044382	1.51543994	0	-0.039555155	0	0	0	0	0.53357484	0
0.40000015	0	0	0	1.8662876	0	0.028199625	-36.93753126	959.9912587	22.51475127	1.51931775	0	-0.040284065	0	0	0	0	0.440896436	0
0.40833348	0	0	0	1.8675332	0	0.028660605	-36.36554652	955.5786029	23.02405825	1.52291284	0	-0.040986705	0	0	0	0	0.28849004	0
0.41666681	0	0	0	1.86878528	0	0.029127065	-35.10390162	951.0993024	23.32726482	1.52622864	0	-0.041654515	0	0	0	0	0.091244203	0
0.42500013	0	0	0	1.87007971	0	0.029567315	-33.10357611	946.3797628	23.63160113	1.52925989	0	-0.042281565	0	0	0	0	-0.138602527	0
0.43333346	0	0	0	1.87144348	0	0.029977455	-30.36292074	941.7620799	23.97512387	1.53195386	0	-0.042887155	0	0	0	0	-0.394963055	0
0.44166681	0	0	0	1.87285107	0	0.030374195	-26.92487784	937.6176781	24.38127703	1.53424194	0	-0.043523085	0	0	0	0	-0.67699374	0
0.45000014	0	0	0	1.87421704	0	0.030761695	-22.81000185	933.9728224	24.93972733	1.53611426	0	-0.044219525	0	0	0	0	-0.978023878	0
0.45833349	0	0	0	1.8753916	0	0.031131365	-18.07036995	930.6908591	25.69883941	1.53765405	0	-0.044951395	0	0	0	0	-1.301280817	0
0.46666682	0	0	0	1.87621899	0	0.031481715	-12.920908	927.8106403	26.62359814	1.53901831	0	-0.045617715	0	0	0	0	-1.654949518	0
0.47500014	0	0	0	1.87663416	0	0.031805665	-7.713566975	925.6976936	27.61867627	1.54038574	0	-0.046103065	0	0	0	0	-2.038494986	0
0.48333347	0	0	0	1.87670386	0	0.032093465	-2.788658277	925.0938815	28.57044281	1.54184631	0	-0.046357335	0	0	0	0	-2.436547488	0
0.49166682	0	0	0	1.8765885	0	0.032328435	1.632674081	926.7632661	29.43799573	1.54337097	0	-0.046422405	0	0	0	0	-2.826941438	0
0.50000012	0	0	0	1.87645935	0	0.032498035	5.4784999	930.6571036	30.01292325	1.54493164	0	-0.046366095	0	0	0	0	-3.233525585	0
0.50833344	0	0	0	1.87643591	0	0.032614145	8.890442205	936.2897774	30.27828031	1.54653992	0	-0.046253155	0	0	0	0	-3.687752496	0
0.51666677	0	0	0	1.87657739	0	0.032700235	12.2134892	943.6691741	30.68025721	1.54815869	0	-0.046133215	0	0	0	0	-4.167618864	0
0.52500015	0	0	0	1.8769115	0	0.032778755	15.61491339	952.8643519	31.49215341	1.54974585	0	-0.046013585	0	0	0	0	-4.642969696	0
0.53333348	0	0	0	1.87748462	0	0.032846125	19.20111984	963.6281419	32.83814237	1.55128149	0	-0.045899605	0	0	0	0	-5.079113849	0
0.54166681	0	0	0	1.87839246	0	0.032867595	23.08944076	975.8133895	34.72907758	1.55273401	0	-0.045799085	0	0	0	0	-5.450644882	0
0.55000013	0	0	0	1.8797428	0	0.032826005	27.36943849	989.5881598	37.09040106	1.55408191	0	-0.045726815	0	0	0	0	-5.7495893	0
0.55833352	0	0	0	1.88154578	0	0.032743915	32.10955158	1005.323093	39.84985923	1.55531738	0	-0.045696785	0	0	0	0	-5.974932628	0
0.56666684	0	0	0	1.88370569	0	0.032662005	37.34275357	1023.241944	42.92853625	1.55642761	0	-0.045688395	0	0	0	0	-6.139686373	0
0.57500017	0	0	0	1.88606921	0	0.032625935	43.12448521	1042.669372	46.14256309	1.55746582	0	-0.045666145	0	0	0	0	-6.264000837	0
0.58333349	0	0	0	1.88851599	0	0.032664815	49.59752336	1062.795874	49.12336866	1.55846863	0	-0.045610335	0	0	0	0	-6.365444878	0
0.59166682	0	0	0	1.89099768	0	0.032759265	56.869577	1083.280592	51.71322572	1.55939575	0	-0.045524055	0	0	0	0	-6.45655745	0
0.60000014	0	0	0	1.89364648	0	0.032864125	64.96102132	1103.734703	53.99191217	1.56020349	0	-0.045432775	0	0	0	0	-6.531934611	0
0.60833347	0	0	0	1.89676172	0	0.032968665	73.82938484	1123.274935	56.05307948	1.56089099	0	-0.045342935	0	0	0	0	-6.583232568	0
0.61666679	0	0	0	1.9006825	0	0.033180165	83.36876463	1140.604345	57.89134357	1.561479	0	-0.045254675	0	0	0	0	-6.613137974	0
0.62500012	0	0	0	1.90575635	0	0.033695375	93.40511942	1154.252575	59.42483797	1.56199854	0	-0.045170415	0	0	0	0	-6.631373253	0
0.63333344	0	0	0	1.91245007	0	0.034787515	103.7409647	1162.873638	60.50612144	1.56249561	0	-0.045077735	0	0	0	0	-6.647945708	0
0.64166677	0	0	0	1.92099707	0	0.036665515	114.1832341	1165.596277	60.93587939	1.56299792	0	-0.044957465	0	0	0	0	-6.684389996	0
0.65000015	0	0	0	1.92963062	0	0.038878255	124.4895759	1162.225038	60.5486192	1.56349341	0	-0.044799605	0	0	0	0	-6.759887391	0
0.65833348	-0.395288234	28.71355131	0.423042627	1.93586475	0	0.040561895	134.278192	1152.771276	59.22190326	1.56399536	0	-0.044624395	0	-0.009879379	0	0	-6.864747451	0
0.66666681	0.925436497	78.87043957	3.537473429	1.93937451	0	0.041405175	143.0390399	1136.96805	56.78164442	1.56453662	0	-0.044434035	0	0.011309792	0	0	-6.965221864	0
0.67500013	1.530178913	138.9945467	8.43852583	1.94127612	0	0.041609975	150.2928673	1114.001927	53.09853535	1.56514246	0	-0.044191445	0	0.061875752	0	0	-7.020830018	0
0.68333352	-2.56905456	185.8255485	12.63094972	1.94298352	0	0.041720635	155.797977	1082.715971	48.21519415	1.5658374	0	-0.043858405	0	0.107814296	0	0	-7.003290274	0
0.69166684	-13.40569899	221.6666287	13.99364382	1.94602734	0	0.042395435	159.6980952	1042.362207	42.2970191	1.56664539	0	-0.043423195	0	0.127284095	0	0	-6.918891565	0
0.70000017	-29.75198344	259.2511995	11.69954549	1.95160266	0	0.043894275	162.1652771	992.9482248	35.69133611	1.56755225	0	-0.042901165	0	0.143665621	0	0	-6.754994841	0
0.70833349	-48.70526414	307.4354467	5.542582859	1.95986218	0	0.046054265	163.1252618	934.6447953	29.12877557	1.56855432	0	-0.042322945	0	0.156538449	0	0	-6.447390776	0
0.71666682	-67.55146855	366.6793114	-3.149624557	1.96866711	0	0.048076715	162.209216	868.1795722	23.20071818	1.5696593	0	-0.041707805	0	0.097993291	0	0	-5.95233049	0
0.72500014	-84.36220769	425.0855279	-10.61750819	1.97579382	0	0.049338385	158.8385703	795.1158542	17.93069079	1.57086877	0	-0.041063085	0	-0.095148353	0	0	-5.299624551	0
0.73333347	-97.68568344	475.1201177	-15.01689913	1.98117896	0	0.049954655	152.4211484	717.5330928	13.04027114	1.57222388	0	-0.040373205	0	-0.420360478	0	0	-4.577983897	0
0.74166679	-107.8403478	520.1587275	-17.60248934	1.98532544	0	0.050214665	142.607474	637.9804307	8.229946983	1.57378833	0	-0.039605965	0	-0.863591921	0	0	-3.888159863	0
0.75000012	-115.8192044	561.7962119	-19.9092092	1.98858948	0	0.050329475	129.5837007	558.9833661	3.391470582	1.5756178	0	-0.038737985	0	-1.34587698	0	0	-3.298463564	0
0.7583335	-121.2004691	598.5967807	-22.70075781	1.99131396	0	0.050431665	114.2640687	482.2638551	-1.301011084	1.57778857	0	-0.037783825	0	-1.826866566	0	0	-2.830084894	0
0.76666683	-124.1696623	630.2169613	-25.349468	1.99381287	0	0.050532695	97.4586727	409.3252308	-5.419064501	1.58035095	0	-0.036774335	0	-2.332028202	0	0	-2.450388794	0
0.77500015	-125.7934952	658.8780024	-27.07220744	1.99626758	0	0.050587045	79.41502487	341.5984409	-8.457463835	1.58333325	0	-0.035707685	0	-2.851442865	0	0	-2.105274871	0
